<svg xmlns="http://www.w3.org/2000/svg" viewBox="0 0 860 400" font-family="Segoe UI, Arial, sans-serif">
  <defs>
    <linearGradient id="bg" x1="0" y1="0" x2="0" y2="1"><stop offset="0%" stop-color="#0f172a"/><stop offset="100%" stop-color="#1e293b"/></linearGradient>
    <filter id="sh"><feDropShadow dx="1" dy="2" stdDeviation="2" flood-opacity="0.25"/></filter>
    <marker id="ar" markerWidth="8" markerHeight="6" refX="8" refY="3" orient="auto"><path d="M0,0 L8,3 L0,6Z" fill="#38bdf8"/></marker>
    <marker id="arG" markerWidth="8" markerHeight="6" refX="8" refY="3" orient="auto"><path d="M0,0 L8,3 L0,6Z" fill="#4ade80"/></marker>
    <marker id="arP" markerWidth="8" markerHeight="6" refX="8" refY="3" orient="auto"><path d="M0,0 L8,3 L0,6Z" fill="#a78bfa"/></marker>
  </defs>
  <rect width="860" height="400" rx="12" fill="url(#bg)"/>
  <text x="430" y="30" text-anchor="middle" fill="#38bdf8" font-size="18" font-weight="bold">DeepSpeci — Solution Architecture</text>

  <!-- Users -->
  <rect x="20" y="55" width="150" height="130" rx="8" fill="#1e3a5f" stroke="#38bdf8" stroke-width="1.5" filter="url(#sh)"/>
  <text x="95" y="75" text-anchor="middle" fill="#38bdf8" font-size="12" font-weight="bold">Users</text>
  <text x="35" y="95" fill="#e2e8f0" font-size="10">👤 Non-Technical User</text>
  <text x="35" y="113" fill="#e2e8f0" font-size="10">👤 Technical Manager</text>
  <text x="35" y="131" fill="#e2e8f0" font-size="10">👤 SME</text>
  <text x="35" y="149" fill="#e2e8f0" font-size="10">👤 Developer</text>
  <text x="35" y="167" fill="#e2e8f0" font-size="10">👤 Manager</text>

  <!-- DeepSpeci UI -->
  <rect x="210" y="70" width="160" height="55" rx="8" fill="#0e7490" filter="url(#sh)"/>
  <text x="290" y="95" text-anchor="middle" fill="#fff" font-size="13" font-weight="bold">DeepSpeci UI</text>
  <text x="290" y="112" text-anchor="middle" fill="#cffafe" font-size="9">Chat · Dashboard · Import</text>

  <!-- DeepSpeci API -->
  <rect x="210" y="150" width="160" height="45" rx="8" fill="#155e75" filter="url(#sh)"/>
  <text x="290" y="178" text-anchor="middle" fill="#fff" font-size="12" font-weight="bold">DeepSpeci API</text>

  <!-- Req Evaluator Agent -->
  <rect x="430" y="100" width="200" height="55" rx="8" fill="#7e22ce" filter="url(#sh)"/>
  <text x="530" y="122" text-anchor="middle" fill="#fff" font-size="12" font-weight="bold">Requirement Evaluator</text>
  <text x="530" y="140" text-anchor="middle" fill="#e9d5ff" font-size="9">Ambiguity · Testability · Gaps</text>

  <!-- Model Providers -->
  <rect x="690" y="60" width="150" height="100" rx="8" fill="#1a2744" stroke="#facc15" stroke-width="1.5" filter="url(#sh)"/>
  <text x="765" y="80" text-anchor="middle" fill="#facc15" font-size="11" font-weight="bold">Model Providers</text>
  <rect x="705" y="90" width="120" height="20" rx="3" fill="#854d0e"/><text x="765" y="104" text-anchor="middle" fill="#fef3c7" font-size="9">Gemini (primary)</text>
  <rect x="705" y="115" width="120" height="20" rx="3" fill="#854d0e"/><text x="765" y="129" text-anchor="middle" fill="#fef3c7" font-size="9">Claude · OpenAI</text>

  <!-- Outputs -->
  <rect x="430" y="210" width="170" height="45" rx="8" fill="#065f46" filter="url(#sh)"/>
  <text x="515" y="237" text-anchor="middle" fill="#4ade80" font-size="11" font-weight="bold">Validated Requirements</text>

  <!-- Downstream -->
  <rect x="170" y="300" width="130" height="35" rx="6" fill="#0e7490" filter="url(#sh)"/>
  <text x="235" y="322" text-anchor="middle" fill="#fff" font-size="10">→ CaseGeni</text>
  <rect x="330" y="300" width="130" height="35" rx="6" fill="#0e7490" filter="url(#sh)"/>
  <text x="395" y="322" text-anchor="middle" fill="#fff" font-size="10">→ Insights360</text>
  <rect x="490" y="300" width="130" height="35" rx="6" fill="#334155" filter="url(#sh)"/>
  <text x="555" y="322" text-anchor="middle" fill="#94a3b8" font-size="10">→ Export (DOCX)</text>

  <!-- Storage -->
  <rect x="690" y="210" width="150" height="45" rx="8" fill="#1a2744" stroke="#4ade80" stroke-width="1.5" filter="url(#sh)"/>
  <text x="765" y="228" text-anchor="middle" fill="#4ade80" font-size="10" font-weight="bold">PostgreSQL</text>
  <text x="765" y="244" text-anchor="middle" fill="#94a3b8" font-size="9">Reqs · Versions · Audit</text>

  <!-- Arrows -->
  <line x1="170" y1="120" x2="210" y2="97" stroke="#38bdf8" stroke-width="1.5" marker-end="url(#ar)"/>
  <line x1="290" y1="125" x2="290" y2="150" stroke="#38bdf8" stroke-width="1.5" marker-end="url(#ar)"/>
  <line x1="370" y1="172" x2="430" y2="130" stroke="#a78bfa" stroke-width="1.5" marker-end="url(#arP)"/>
  <line x1="630" y1="127" x2="690" y2="110" stroke="#facc15" stroke-width="1.5"/>
  <line x1="530" y1="155" x2="515" y2="210" stroke="#4ade80" stroke-width="1.5" marker-end="url(#arG)"/>
  <line x1="630" y1="140" x2="690" y2="230" stroke="#4ade80" stroke-width="1" stroke-dasharray="4"/>
  <line x1="420" y1="255" x2="235" y2="300" stroke="#38bdf8" stroke-width="1" stroke-dasharray="4"/>
  <line x1="515" y1="255" x2="395" y2="300" stroke="#38bdf8" stroke-width="1" stroke-dasharray="4"/>
  <line x1="550" y1="255" x2="555" y2="300" stroke="#94a3b8" stroke-width="1" stroke-dasharray="4"/>

  <!-- Legend -->
  <rect x="20" y="360" width="820" height="28" rx="4" fill="#0f172a" stroke="#334155"/>
  <rect x="35" y="367" width="10" height="10" rx="2" fill="#0e7490"/><text x="50" y="376" fill="#e2e8f0" font-size="9">UI/API</text>
  <rect x="110" y="367" width="10" height="10" rx="2" fill="#7e22ce"/><text x="125" y="376" fill="#e2e8f0" font-size="9">Agent</text>
  <rect x="180" y="367" width="10" height="10" rx="2" fill="#854d0e"/><text x="195" y="376" fill="#e2e8f0" font-size="9">Model</text>
  <rect x="250" y="367" width="10" height="10" rx="2" fill="#065f46"/><text x="265" y="376" fill="#e2e8f0" font-size="9">Output</text>
  <text x="340" y="376" fill="#64748b" font-size="9">Dashed = downstream flow</text>
</svg>