<svg xmlns="http://www.w3.org/2000/svg" viewBox="0 0 880 420" font-family="Segoe UI, Arial, sans-serif">
  <defs>
    <linearGradient id="bg" x1="0" y1="0" x2="0" y2="1"><stop offset="0%" stop-color="#0f172a"/><stop offset="100%" stop-color="#1e293b"/></linearGradient>
    <filter id="sh"><feDropShadow dx="1" dy="2" stdDeviation="2" flood-opacity="0.25"/></filter>
  </defs>
  <rect width="880" height="420" rx="12" fill="url(#bg)"/>
  <text x="440" y="30" text-anchor="middle" fill="#ef4444" font-size="18" font-weight="bold">Secure-Xi — Solution Architecture</text>

  <!-- Upstream -->
  <rect x="20" y="55" width="140" height="120" rx="8" fill="#1a2744" stroke="#22d3ee" stroke-width="1.5" filter="url(#sh)"/>
  <text x="90" y="75" text-anchor="middle" fill="#22d3ee" font-size="11" font-weight="bold">Inputs</text>
  <rect x="30" y="85" width="120" height="22" rx="4" fill="#065f46"/><text x="90" y="100" text-anchor="middle" fill="#4ade80" font-size="9">Code Repo</text>
  <rect x="30" y="113" width="120" height="22" rx="4" fill="#065f46"/><text x="90" y="128" text-anchor="middle" fill="#4ade80" font-size="9">OpenAPI Spec</text>
  <rect x="30" y="141" width="120" height="22" rx="4" fill="#065f46"/><text x="90" y="156" text-anchor="middle" fill="#4ade80" font-size="9">Infra-as-Code</text>

  <!-- Users -->
  <rect x="20" y="195" width="140" height="90" rx="8" fill="#1e3a5f" stroke="#38bdf8" stroke-width="1.5" filter="url(#sh)"/>
  <text x="90" y="215" text-anchor="middle" fill="#38bdf8" font-size="11" font-weight="bold">Users</text>
  <text x="35" y="235" fill="#e2e8f0" font-size="10">🔧 Security Eng</text>
  <text x="35" y="253" fill="#e2e8f0" font-size="10">👤 Technical Mgr</text>
  <text x="35" y="271" fill="#e2e8f0" font-size="10">👤 Developer</text>

  <!-- Secure-Xi UI -->
  <rect x="210" y="75" width="155" height="50" rx="8" fill="#0e7490" filter="url(#sh)"/>
  <text x="287" y="97" text-anchor="middle" fill="#fff" font-size="12" font-weight="bold">Secure-Xi UI</text>
  <text x="287" y="113" text-anchor="middle" fill="#cffafe" font-size="9">Scans · Threat Model · Triage</text>

  <!-- Secure-Xi API -->
  <rect x="210" y="150" width="155" height="40" rx="8" fill="#155e75" filter="url(#sh)"/>
  <text x="287" y="175" text-anchor="middle" fill="#fff" font-size="12" font-weight="bold">Secure-Xi API</text>

  <!-- Security Agent -->
  <rect x="420" y="60" width="200" height="55" rx="8" fill="#7e22ce" filter="url(#sh)"/>
  <text x="520" y="82" text-anchor="middle" fill="#fff" font-size="12" font-weight="bold">Security Agent</text>
  <text x="520" y="100" text-anchor="middle" fill="#e9d5ff" font-size="9">Threat Model · Triage · Test Gen</text>

  <!-- Scan Tools -->
  <rect x="420" y="140" width="60" height="35" rx="4" fill="#334155" filter="url(#sh)"/><text x="450" y="162" text-anchor="middle" fill="#e2e8f0" font-size="8">semgrep</text>
  <rect x="490" y="140" width="60" height="35" rx="4" fill="#334155" filter="url(#sh)"/><text x="520" y="162" text-anchor="middle" fill="#e2e8f0" font-size="8">ZAP</text>
  <rect x="560" y="140" width="60" height="35" rx="4" fill="#334155" filter="url(#sh)"/><text x="590" y="162" text-anchor="middle" fill="#e2e8f0" font-size="8">Snyk/Trivy</text>

  <!-- Model Providers -->
  <rect x="690" y="55" width="165" height="85" rx="8" fill="#1a2744" stroke="#facc15" stroke-width="1.5" filter="url(#sh)"/>
  <text x="772" y="75" text-anchor="middle" fill="#facc15" font-size="11" font-weight="bold">Model Providers</text>
  <rect x="705" y="83" width="135" height="18" rx="3" fill="#854d0e"/><text x="772" y="96" text-anchor="middle" fill="#fef3c7" font-size="9">Claude (primary)</text>
  <rect x="705" y="107" width="135" height="18" rx="3" fill="#854d0e"/><text x="772" y="120" text-anchor="middle" fill="#fef3c7" font-size="9">OpenAI · Gemini</text>

  <!-- Outputs -->
  <rect x="420" y="210" width="200" height="50" rx="8" fill="#065f46" filter="url(#sh)"/>
  <text x="520" y="230" text-anchor="middle" fill="#4ade80" font-size="11" font-weight="bold">Security Findings</text>
  <text x="520" y="247" text-anchor="middle" fill="#86efac" font-size="9">SAST · DAST · SCA · Threat Model</text>

  <!-- Downstream -->
  <rect x="220" y="310" width="130" height="35" rx="6" fill="#0e7490" filter="url(#sh)"/>
  <text x="285" y="332" text-anchor="middle" fill="#fff" font-size="10">→ Insights360</text>
  <rect x="380" y="310" width="130" height="35" rx="6" fill="#334155" filter="url(#sh)"/>
  <text x="445" y="332" text-anchor="middle" fill="#f87171" font-size="10">→ CI Gate (block)</text>
  <rect x="540" y="310" width="130" height="35" rx="6" fill="#334155" filter="url(#sh)"/>
  <text x="605" y="332" text-anchor="middle" fill="#94a3b8" font-size="10">→ PR Comments</text>

  <!-- Storage -->
  <rect x="690" y="210" width="165" height="50" rx="8" fill="#1a2744" stroke="#4ade80" stroke-width="1.5" filter="url(#sh)"/>
  <text x="772" y="230" text-anchor="middle" fill="#4ade80" font-size="10" font-weight="bold">PostgreSQL</text>
  <text x="772" y="247" text-anchor="middle" fill="#94a3b8" font-size="9">Findings · Threat Model · CVEs</text>

  <!-- Arrows -->
  <line x1="160" y1="110" x2="210" y2="100" stroke="#22d3ee" stroke-width="1.5"/>
  <line x1="160" y1="240" x2="210" y2="170" stroke="#38bdf8" stroke-width="1.5"/>
  <line x1="287" y1="125" x2="287" y2="150" stroke="#38bdf8" stroke-width="1.5"/>
  <line x1="365" y1="170" x2="420" y2="90" stroke="#a78bfa" stroke-width="1.5"/>
  <line x1="620" y1="87" x2="690" y2="90" stroke="#facc15" stroke-width="1"/>
  <line x1="520" y1="115" x2="520" y2="140" stroke="#94a3b8" stroke-width="1"/>
  <line x1="520" y1="175" x2="520" y2="210" stroke="#4ade80" stroke-width="1.5"/>
  <line x1="620" y1="100" x2="690" y2="230" stroke="#4ade80" stroke-width="1" stroke-dasharray="4"/>
  <line x1="440" y1="260" x2="285" y2="310" stroke="#38bdf8" stroke-width="1" stroke-dasharray="4"/>
  <line x1="520" y1="260" x2="445" y2="310" stroke="#f87171" stroke-width="1" stroke-dasharray="4"/>
  <line x1="580" y1="260" x2="605" y2="310" stroke="#94a3b8" stroke-width="1" stroke-dasharray="4"/>

  <!-- Legend -->
  <rect x="20" y="370" width="840" height="35" rx="4" fill="#0f172a" stroke="#334155"/>
  <text x="40" y="392" fill="#64748b" font-size="9">SAST = Static Application Security Testing · DAST = Dynamic Application Security Testing · SCA = Software Composition Analysis</text>
</svg>