<svg xmlns="http://www.w3.org/2000/svg" viewBox="0 0 860 400" font-family="Segoe UI, Arial, sans-serif">
  <defs>
    <linearGradient id="bg" x1="0" y1="0" x2="0" y2="1"><stop offset="0%" stop-color="#0f172a"/><stop offset="100%" stop-color="#1e293b"/></linearGradient>
    <filter id="sh"><feDropShadow dx="1" dy="2" stdDeviation="2" flood-opacity="0.25"/></filter>
  </defs>
  <rect width="860" height="400" rx="12" fill="url(#bg)"/>
  <text x="430" y="30" text-anchor="middle" fill="#22d3ee" font-size="18" font-weight="bold">DataGeni — Solution Architecture</text>

  <!-- Upstream -->
  <rect x="20" y="70" width="140" height="45" rx="8" fill="#065f46" filter="url(#sh)"/>
  <text x="90" y="90" text-anchor="middle" fill="#4ade80" font-size="11" font-weight="bold">CaseGeni</text>
  <text x="90" y="105" text-anchor="middle" fill="#86efac" font-size="9">Data Needs</text>

  <!-- Users -->
  <rect x="20" y="140" width="140" height="75" rx="8" fill="#1e3a5f" stroke="#38bdf8" stroke-width="1.5" filter="url(#sh)"/>
  <text x="90" y="160" text-anchor="middle" fill="#38bdf8" font-size="11" font-weight="bold">Users</text>
  <text x="35" y="180" fill="#e2e8f0" font-size="10">🔧 Automation Eng</text>
  <text x="35" y="198" fill="#e2e8f0" font-size="10">🔧 Performance Eng</text>

  <!-- DataGeni UI -->
  <rect x="210" y="75" width="155" height="50" rx="8" fill="#0e7490" filter="url(#sh)"/>
  <text x="287" y="97" text-anchor="middle" fill="#fff" font-size="12" font-weight="bold">DataGeni UI</text>
  <text x="287" y="113" text-anchor="middle" fill="#cffafe" font-size="9">Schema · Config · Export</text>

  <!-- DataGeni API -->
  <rect x="210" y="150" width="155" height="40" rx="8" fill="#155e75" filter="url(#sh)"/>
  <text x="287" y="175" text-anchor="middle" fill="#fff" font-size="12" font-weight="bold">DataGeni API</text>

  <!-- Test Data Generator -->
  <rect x="420" y="90" width="200" height="55" rx="8" fill="#7e22ce" filter="url(#sh)"/>
  <text x="520" y="112" text-anchor="middle" fill="#fff" font-size="12" font-weight="bold">Test Data Generator</text>
  <text x="520" y="130" text-anchor="middle" fill="#e9d5ff" font-size="9">Synthetic · Edge · FK · PII-safe</text>

  <!-- Libraries -->
  <rect x="420" y="165" width="95" height="35" rx="6" fill="#334155" filter="url(#sh)"/>
  <text x="467" y="187" text-anchor="middle" fill="#e2e8f0" font-size="9">Faker/Mimesis</text>
  <rect x="525" y="165" width="95" height="35" rx="6" fill="#334155" filter="url(#sh)"/>
  <text x="572" y="187" text-anchor="middle" fill="#e2e8f0" font-size="9">Presidio (PII)</text>

  <!-- Model Providers -->
  <rect x="680" y="75" width="155" height="85" rx="8" fill="#1a2744" stroke="#facc15" stroke-width="1.5" filter="url(#sh)"/>
  <text x="757" y="95" text-anchor="middle" fill="#facc15" font-size="11" font-weight="bold">Model Providers</text>
  <rect x="695" y="103" width="125" height="18" rx="3" fill="#854d0e"/><text x="757" y="116" text-anchor="middle" fill="#fef3c7" font-size="9">Claude (primary)</text>
  <rect x="695" y="127" width="125" height="18" rx="3" fill="#854d0e"/><text x="757" y="140" text-anchor="middle" fill="#fef3c7" font-size="9">Gemini · OpenAI</text>

  <!-- Output -->
  <rect x="420" y="230" width="200" height="45" rx="8" fill="#065f46" filter="url(#sh)"/>
  <text x="520" y="248" text-anchor="middle" fill="#4ade80" font-size="11" font-weight="bold">Synthetic Datasets</text>
  <text x="520" y="264" text-anchor="middle" fill="#86efac" font-size="9">CSV · JSON · SQL · Parquet</text>

  <!-- Downstream -->
  <rect x="180" y="320" width="130" height="35" rx="6" fill="#0e7490" filter="url(#sh)"/>
  <text x="245" y="342" text-anchor="middle" fill="#fff" font-size="10">→ Auto-PlayPilot</text>
  <rect x="340" y="320" width="130" height="35" rx="6" fill="#0e7490" filter="url(#sh)"/>
  <text x="405" y="342" text-anchor="middle" fill="#fff" font-size="10">→ Perf-Xi</text>
  <rect x="500" y="320" width="130" height="35" rx="6" fill="#0e7490" filter="url(#sh)"/>
  <text x="565" y="342" text-anchor="middle" fill="#fff" font-size="10">→ Insights360</text>

  <!-- Storage -->
  <rect x="680" y="230" width="155" height="45" rx="8" fill="#1a2744" stroke="#4ade80" stroke-width="1.5" filter="url(#sh)"/>
  <text x="757" y="248" text-anchor="middle" fill="#4ade80" font-size="10" font-weight="bold">Blob Storage</text>
  <text x="757" y="264" text-anchor="middle" fill="#94a3b8" font-size="9">Datasets · Seeds · Lineage</text>

  <!-- Arrows -->
  <line x1="160" y1="92" x2="210" y2="95" stroke="#4ade80" stroke-width="1.5"/>
  <line x1="160" y1="175" x2="210" y2="170" stroke="#38bdf8" stroke-width="1.5"/>
  <line x1="287" y1="125" x2="287" y2="150" stroke="#38bdf8" stroke-width="1.5"/>
  <line x1="365" y1="170" x2="420" y2="120" stroke="#a78bfa" stroke-width="1.5"/>
  <line x1="620" y1="117" x2="680" y2="110" stroke="#facc15" stroke-width="1"/>
  <line x1="520" y1="145" x2="520" y2="165" stroke="#94a3b8" stroke-width="1"/>
  <line x1="520" y1="200" x2="520" y2="230" stroke="#4ade80" stroke-width="1.5"/>
  <line x1="620" y1="130" x2="680" y2="250" stroke="#4ade80" stroke-width="1" stroke-dasharray="4"/>
  <line x1="440" y1="275" x2="245" y2="320" stroke="#38bdf8" stroke-width="1" stroke-dasharray="4"/>
  <line x1="500" y1="275" x2="405" y2="320" stroke="#38bdf8" stroke-width="1" stroke-dasharray="4"/>
  <line x1="560" y1="275" x2="565" y2="320" stroke="#38bdf8" stroke-width="1" stroke-dasharray="4"/>
</svg>