<svg xmlns="http://www.w3.org/2000/svg" viewBox="0 0 880 420" font-family="Segoe UI, Arial, sans-serif">
  <defs>
    <linearGradient id="bg" x1="0" y1="0" x2="0" y2="1"><stop offset="0%" stop-color="#0f172a"/><stop offset="100%" stop-color="#1e293b"/></linearGradient>
    <filter id="sh"><feDropShadow dx="1" dy="2" stdDeviation="2" flood-opacity="0.25"/></filter>
  </defs>
  <rect width="880" height="420" rx="12" fill="url(#bg)"/>
  <text x="440" y="30" text-anchor="middle" fill="#facc15" font-size="18" font-weight="bold">Insights360 — Solution Architecture</text>

  <!-- Upstream Sources -->
  <rect x="20" y="55" width="130" height="200" rx="8" fill="#1a2744" stroke="#22d3ee" stroke-width="1.5" filter="url(#sh)"/>
  <text x="85" y="75" text-anchor="middle" fill="#22d3ee" font-size="11" font-weight="bold">Data Sources</text>
  <rect x="30" y="85" width="110" height="22" rx="4" fill="#065f46"/><text x="85" y="100" text-anchor="middle" fill="#4ade80" font-size="9">Auto-PlayPilot</text>
  <rect x="30" y="113" width="110" height="22" rx="4" fill="#065f46"/><text x="85" y="128" text-anchor="middle" fill="#4ade80" font-size="9">CaseGeni</text>
  <rect x="30" y="141" width="110" height="22" rx="4" fill="#065f46"/><text x="85" y="156" text-anchor="middle" fill="#4ade80" font-size="9">DataGeni</text>
  <rect x="30" y="169" width="110" height="22" rx="4" fill="#065f46"/><text x="85" y="184" text-anchor="middle" fill="#4ade80" font-size="9">Perf-Xi</text>
  <rect x="30" y="197" width="110" height="22" rx="4" fill="#065f46"/><text x="85" y="212" text-anchor="middle" fill="#4ade80" font-size="9">Secure-Xi</text>
  <rect x="30" y="225" width="110" height="22" rx="4" fill="#065f46"/><text x="85" y="240" text-anchor="middle" fill="#4ade80" font-size="9">DeepSpeci</text>

  <!-- Users -->
  <rect x="20" y="275" width="130" height="90" rx="8" fill="#1e3a5f" stroke="#38bdf8" stroke-width="1.5" filter="url(#sh)"/>
  <text x="85" y="295" text-anchor="middle" fill="#38bdf8" font-size="11" font-weight="bold">Users</text>
  <text x="35" y="315" fill="#e2e8f0" font-size="10">👤 Manager</text>
  <text x="35" y="333" fill="#e2e8f0" font-size="10">👤 Technical Mgr</text>
  <text x="35" y="351" fill="#e2e8f0" font-size="10">👤 Non-Technical</text>

  <!-- Insights360 API -->
  <rect x="210" y="100" width="170" height="50" rx="8" fill="#0e7490" filter="url(#sh)"/>
  <text x="295" y="122" text-anchor="middle" fill="#fff" font-size="12" font-weight="bold">Insights360 API</text>
  <text x="295" y="138" text-anchor="middle" fill="#cffafe" font-size="9">Aggregate · Transform · Cache</text>

  <!-- Report Agent -->
  <rect x="440" y="90" width="200" height="55" rx="8" fill="#7e22ce" filter="url(#sh)"/>
  <text x="540" y="112" text-anchor="middle" fill="#fff" font-size="12" font-weight="bold">Report Agent</text>
  <text x="540" y="130" text-anchor="middle" fill="#e9d5ff" font-size="9">AI Narrative · Trends · Digest</text>

  <!-- Model Providers -->
  <rect x="700" y="75" width="155" height="85" rx="8" fill="#1a2744" stroke="#facc15" stroke-width="1.5" filter="url(#sh)"/>
  <text x="777" y="95" text-anchor="middle" fill="#facc15" font-size="11" font-weight="bold">Model Providers</text>
  <rect x="715" y="103" width="125" height="18" rx="3" fill="#854d0e"/><text x="777" y="116" text-anchor="middle" fill="#fef3c7" font-size="9">Gemini (primary)</text>
  <rect x="715" y="127" width="125" height="18" rx="3" fill="#854d0e"/><text x="777" y="140" text-anchor="middle" fill="#fef3c7" font-size="9">Claude · OpenAI</text>

  <!-- Dashboard -->
  <rect x="210" y="200" width="170" height="50" rx="8" fill="#155e75" filter="url(#sh)"/>
  <text x="295" y="222" text-anchor="middle" fill="#fff" font-size="12" font-weight="bold">Dashboard UI</text>
  <text x="295" y="238" text-anchor="middle" fill="#cffafe" font-size="9">KPIs · Heatmap · Trends</text>

  <!-- Outputs -->
  <rect x="440" y="200" width="100" height="40" rx="6" fill="#065f46" filter="url(#sh)"/>
  <text x="490" y="224" text-anchor="middle" fill="#4ade80" font-size="10">PDF / CSV</text>
  <rect x="560" y="200" width="100" height="40" rx="6" fill="#065f46" filter="url(#sh)"/>
  <text x="610" y="224" text-anchor="middle" fill="#4ade80" font-size="10">Slack/Teams</text>
  <rect x="680" y="200" width="100" height="40" rx="6" fill="#065f46" filter="url(#sh)"/>
  <text x="730" y="224" text-anchor="middle" fill="#4ade80" font-size="10">Email</text>

  <!-- Storage -->
  <rect x="440" y="280" width="200" height="45" rx="8" fill="#1a2744" stroke="#4ade80" stroke-width="1.5" filter="url(#sh)"/>
  <text x="540" y="298" text-anchor="middle" fill="#4ade80" font-size="10" font-weight="bold">PostgreSQL + Redis</text>
  <text x="540" y="314" text-anchor="middle" fill="#94a3b8" font-size="9">Metrics · Summaries · Cache</text>

  <!-- Arrows -->
  <line x1="150" y1="155" x2="210" y2="125" stroke="#22d3ee" stroke-width="1.5"/>
  <line x1="150" y1="310" x2="210" y2="225" stroke="#38bdf8" stroke-width="1.5"/>
  <line x1="380" y1="125" x2="440" y2="117" stroke="#a78bfa" stroke-width="1.5"/>
  <line x1="640" y1="117" x2="700" y2="110" stroke="#facc15" stroke-width="1"/>
  <line x1="540" y1="145" x2="540" y2="200" stroke="#4ade80" stroke-width="1.5"/>
  <line x1="295" y1="150" x2="295" y2="200" stroke="#38bdf8" stroke-width="1.5"/>
  <line x1="540" y1="240" x2="540" y2="280" stroke="#4ade80" stroke-width="1" stroke-dasharray="4"/>
</svg>