<svg xmlns="http://www.w3.org/2000/svg" viewBox="0 0 880 420" font-family="Segoe UI, Arial, sans-serif">
  <defs>
    <linearGradient id="bg" x1="0" y1="0" x2="0" y2="1"><stop offset="0%" stop-color="#0f172a"/><stop offset="100%" stop-color="#1e293b"/></linearGradient>
    <filter id="sh"><feDropShadow dx="1" dy="2" stdDeviation="2" flood-opacity="0.25"/></filter>
  </defs>
  <rect width="880" height="420" rx="12" fill="url(#bg)"/>
  <text x="440" y="30" text-anchor="middle" fill="#f472b6" font-size="18" font-weight="bold">Auto-PlayPilot — Solution Architecture</text>

  <!-- Upstream -->
  <rect x="20" y="65" width="130" height="40" rx="6" fill="#065f46" filter="url(#sh)"/>
  <text x="85" y="82" text-anchor="middle" fill="#4ade80" font-size="10" font-weight="bold">CaseGeni</text>
  <text x="85" y="96" text-anchor="middle" fill="#86efac" font-size="8">Test Cases</text>
  <rect x="20" y="115" width="130" height="40" rx="6" fill="#065f46" filter="url(#sh)"/>
  <text x="85" y="132" text-anchor="middle" fill="#4ade80" font-size="10" font-weight="bold">DataGeni</text>
  <text x="85" y="146" text-anchor="middle" fill="#86efac" font-size="8">Fixtures</text>

  <!-- Users -->
  <rect x="20" y="175" width="130" height="70" rx="8" fill="#1e3a5f" stroke="#38bdf8" stroke-width="1.5" filter="url(#sh)"/>
  <text x="85" y="195" text-anchor="middle" fill="#38bdf8" font-size="11" font-weight="bold">Users</text>
  <text x="35" y="213" fill="#e2e8f0" font-size="10">🔧 Automation Eng</text>
  <text x="35" y="231" fill="#e2e8f0" font-size="10">👤 Technical Mgr</text>

  <!-- APP UI -->
  <rect x="200" y="80" width="155" height="50" rx="8" fill="#0e7490" filter="url(#sh)"/>
  <text x="277" y="102" text-anchor="middle" fill="#fff" font-size="12" font-weight="bold">PlayPilot UI</text>
  <text x="277" y="118" text-anchor="middle" fill="#cffafe" font-size="9">Generate · Review · Execute</text>

  <!-- APP API -->
  <rect x="200" y="155" width="155" height="40" rx="8" fill="#155e75" filter="url(#sh)"/>
  <text x="277" y="180" text-anchor="middle" fill="#fff" font-size="12" font-weight="bold">PlayPilot API</text>

  <!-- Playwright MCP -->
  <rect x="410" y="90" width="200" height="55" rx="8" fill="#7e22ce" filter="url(#sh)"/>
  <text x="510" y="112" text-anchor="middle" fill="#fff" font-size="12" font-weight="bold">Playwright MCP Agent</text>
  <text x="510" y="130" text-anchor="middle" fill="#e9d5ff" font-size="9">Codegen · POM · Troubleshoot</text>

  <!-- Toolchain -->
  <rect x="410" y="170" width="60" height="30" rx="4" fill="#334155" filter="url(#sh)"/><text x="440" y="190" text-anchor="middle" fill="#e2e8f0" font-size="8">ESLint</text>
  <rect x="480" y="170" width="60" height="30" rx="4" fill="#334155" filter="url(#sh)"/><text x="510" y="190" text-anchor="middle" fill="#e2e8f0" font-size="8">TSC</text>
  <rect x="550" y="170" width="80" height="30" rx="4" fill="#334155" filter="url(#sh)"/><text x="590" y="190" text-anchor="middle" fill="#e2e8f0" font-size="8">PW Runner</text>

  <!-- Model Providers -->
  <rect x="680" y="75" width="170" height="85" rx="8" fill="#1a2744" stroke="#facc15" stroke-width="1.5" filter="url(#sh)"/>
  <text x="765" y="95" text-anchor="middle" fill="#facc15" font-size="11" font-weight="bold">Model Providers</text>
  <rect x="695" y="103" width="140" height="18" rx="3" fill="#854d0e"/><text x="765" y="116" text-anchor="middle" fill="#fef3c7" font-size="9">OpenAI (primary)</text>
  <rect x="695" y="127" width="140" height="18" rx="3" fill="#854d0e"/><text x="765" y="140" text-anchor="middle" fill="#fef3c7" font-size="9">Claude · Gemini</text>

  <!-- Output -->
  <rect x="410" y="230" width="220" height="50" rx="8" fill="#065f46" filter="url(#sh)"/>
  <text x="520" y="250" text-anchor="middle" fill="#4ade80" font-size="11" font-weight="bold">.spec.ts Scripts + POM</text>
  <text x="520" y="267" text-anchor="middle" fill="#86efac" font-size="9">Screenshots · Execution Results</text>

  <!-- Downstream -->
  <rect x="220" y="330" width="130" height="35" rx="6" fill="#0e7490" filter="url(#sh)"/>
  <text x="285" y="352" text-anchor="middle" fill="#fff" font-size="10">→ VCS Repo</text>
  <rect x="380" y="330" width="130" height="35" rx="6" fill="#0e7490" filter="url(#sh)"/>
  <text x="445" y="352" text-anchor="middle" fill="#fff" font-size="10">→ Insights360</text>
  <rect x="540" y="330" width="130" height="35" rx="6" fill="#334155" filter="url(#sh)"/>
  <text x="605" y="352" text-anchor="middle" fill="#94a3b8" font-size="10">→ Visual Diffs</text>

  <!-- Storage -->
  <rect x="680" y="230" width="170" height="45" rx="8" fill="#1a2744" stroke="#4ade80" stroke-width="1.5" filter="url(#sh)"/>
  <text x="765" y="248" text-anchor="middle" fill="#4ade80" font-size="10" font-weight="bold">Git / Blob Storage</text>
  <text x="765" y="264" text-anchor="middle" fill="#94a3b8" font-size="9">Scripts · Screenshots · Logs</text>

  <!-- Arrows -->
  <line x1="150" y1="85" x2="200" y2="95" stroke="#4ade80" stroke-width="1.5"/>
  <line x1="150" y1="135" x2="200" y2="115" stroke="#4ade80" stroke-width="1.5"/>
  <line x1="150" y1="210" x2="200" y2="175" stroke="#38bdf8" stroke-width="1.5"/>
  <line x1="277" y1="130" x2="277" y2="155" stroke="#38bdf8" stroke-width="1.5"/>
  <line x1="355" y1="175" x2="410" y2="120" stroke="#a78bfa" stroke-width="1.5"/>
  <line x1="610" y1="117" x2="680" y2="110" stroke="#facc15" stroke-width="1"/>
  <line x1="510" y1="145" x2="510" y2="170" stroke="#94a3b8" stroke-width="1"/>
  <line x1="520" y1="200" x2="520" y2="230" stroke="#4ade80" stroke-width="1.5"/>
  <line x1="630" y1="130" x2="680" y2="250" stroke="#4ade80" stroke-width="1" stroke-dasharray="4"/>
  <line x1="440" y1="280" x2="285" y2="330" stroke="#38bdf8" stroke-width="1" stroke-dasharray="4"/>
  <line x1="520" y1="280" x2="445" y2="330" stroke="#38bdf8" stroke-width="1" stroke-dasharray="4"/>
  <line x1="580" y1="280" x2="605" y2="330" stroke="#94a3b8" stroke-width="1" stroke-dasharray="4"/>
</svg>