<svg xmlns="http://www.w3.org/2000/svg" viewBox="0 0 900 520" font-family="Segoe UI, Arial, sans-serif">
  <defs>
    <linearGradient id="bgGrad" x1="0" y1="0" x2="0" y2="1">
      <stop offset="0%" stop-color="#0f172a"/>
      <stop offset="100%" stop-color="#1e293b"/>
    </linearGradient>
    <filter id="shadow"><feDropShadow dx="1" dy="2" stdDeviation="3" flood-opacity="0.3"/></filter>
  </defs>
  <rect width="900" height="520" rx="12" fill="url(#bgGrad)"/>
  <text x="450" y="38" text-anchor="middle" fill="#38bdf8" font-size="20" font-weight="bold">ZenseAI.Qi — Platform Architecture</text>

  <!-- Stakeholders -->
  <rect x="30" y="60" width="180" height="150" rx="8" fill="#1e3a5f" stroke="#38bdf8" stroke-width="1.5" filter="url(#shadow)"/>
  <text x="120" y="82" text-anchor="middle" fill="#38bdf8" font-size="13" font-weight="bold">Stakeholders</text>
  <text x="45" y="105" fill="#e2e8f0" font-size="11">👤 Manager</text>
  <text x="45" y="125" fill="#e2e8f0" font-size="11">👤 Developer</text>
  <text x="45" y="145" fill="#e2e8f0" font-size="11">👤 Non-Technical User</text>
  <text x="45" y="165" fill="#e2e8f0" font-size="11">👤 SME</text>
  <text x="45" y="185" fill="#e2e8f0" font-size="11">👤 Technical Manager</text>

  <!-- Skilled Users -->
  <rect x="30" y="225" width="180" height="120" rx="8" fill="#1e3a5f" stroke="#818cf8" stroke-width="1.5" filter="url(#shadow)"/>
  <text x="120" y="247" text-anchor="middle" fill="#818cf8" font-size="13" font-weight="bold">Skilled QI Users</text>
  <text x="45" y="270" fill="#e2e8f0" font-size="11">🔧 Automation Engineer</text>
  <text x="45" y="290" fill="#e2e8f0" font-size="11">🔧 Security Engineer</text>
  <text x="45" y="310" fill="#e2e8f0" font-size="11">🔧 Performance Engineer</text>

  <!-- QI Workspace (Solutions) -->
  <rect x="250" y="60" width="310" height="285" rx="8" fill="#1a2744" stroke="#22d3ee" stroke-width="1.5" filter="url(#shadow)"/>
  <text x="405" y="82" text-anchor="middle" fill="#22d3ee" font-size="14" font-weight="bold">QI Workspace — 7 Solutions</text>
  <rect x="265" y="95" width="130" height="30" rx="5" fill="#0e7490"/><text x="330" y="115" text-anchor="middle" fill="#fff" font-size="11">DeepSpeci</text>
  <rect x="415" y="95" width="130" height="30" rx="5" fill="#0e7490"/><text x="480" y="115" text-anchor="middle" fill="#fff" font-size="11">CaseGeni</text>
  <rect x="265" y="135" width="130" height="30" rx="5" fill="#0e7490"/><text x="330" y="155" text-anchor="middle" fill="#fff" font-size="11">DataGeni</text>
  <rect x="415" y="135" width="130" height="30" rx="5" fill="#0e7490"/><text x="480" y="155" text-anchor="middle" fill="#fff" font-size="11">Auto-PlayPilot</text>
  <rect x="265" y="175" width="130" height="30" rx="5" fill="#0e7490"/><text x="330" y="195" text-anchor="middle" fill="#fff" font-size="11">Insights360</text>
  <rect x="415" y="175" width="130" height="30" rx="5" fill="#0e7490"/><text x="480" y="195" text-anchor="middle" fill="#fff" font-size="11">Perf-Xi</text>
  <rect x="340" y="215" width="130" height="30" rx="5" fill="#0e7490"/><text x="405" y="235" text-anchor="middle" fill="#fff" font-size="11">Secure-Xi</text>

  <!-- QE Work Lanes -->
  <text x="405" y="268" text-anchor="middle" fill="#94a3b8" font-size="10" font-style="italic">QE Work Lanes</text>
  <rect x="260" y="278" width="290" height="18" rx="3" fill="#334155"/><text x="405" y="291" text-anchor="middle" fill="#a5b4fc" font-size="9">Interpret & validate requirements</text>
  <rect x="260" y="300" width="290" height="18" rx="3" fill="#334155"/><text x="405" y="313" text-anchor="middle" fill="#a5b4fc" font-size="9">AI-assisted test automation workflows</text>
  <rect x="260" y="322" width="290" height="18" rx="3" fill="#334155"/><text x="405" y="335" text-anchor="middle" fill="#a5b4fc" font-size="9">Performance test coordination & observability</text>

  <!-- AI Agents -->
  <rect x="600" y="60" width="270" height="285" rx="8" fill="#1a2744" stroke="#f472b6" stroke-width="1.5" filter="url(#shadow)"/>
  <text x="735" y="82" text-anchor="middle" fill="#f472b6" font-size="14" font-weight="bold">AI Agents</text>
  <rect x="615" y="95" width="240" height="24" rx="4" fill="#7e22ce"/><text x="735" y="112" text-anchor="middle" fill="#fff" font-size="10">Requirement Evaluator Agent</text>
  <rect x="615" y="125" width="240" height="24" rx="4" fill="#7e22ce"/><text x="735" y="142" text-anchor="middle" fill="#fff" font-size="10">Test Case Generator Agent</text>
  <rect x="615" y="155" width="240" height="24" rx="4" fill="#7e22ce"/><text x="735" y="172" text-anchor="middle" fill="#fff" font-size="10">Test Data Generator Agent</text>
  <rect x="615" y="185" width="240" height="24" rx="4" fill="#7e22ce"/><text x="735" y="202" text-anchor="middle" fill="#fff" font-size="10">Playwright MCP Agent</text>
  <rect x="615" y="215" width="240" height="24" rx="4" fill="#7e22ce"/><text x="735" y="232" text-anchor="middle" fill="#fff" font-size="10">Report Agent</text>
  <rect x="615" y="245" width="240" height="24" rx="4" fill="#7e22ce"/><text x="735" y="262" text-anchor="middle" fill="#fff" font-size="10">Performance Agent</text>
  <rect x="615" y="275" width="240" height="24" rx="4" fill="#7e22ce"/><text x="735" y="292" text-anchor="middle" fill="#fff" font-size="10">Security Agent</text>

  <!-- Model Providers -->
  <rect x="300" y="380" width="500" height="60" rx="8" fill="#1a2744" stroke="#facc15" stroke-width="1.5" filter="url(#shadow)"/>
  <text x="550" y="400" text-anchor="middle" fill="#facc15" font-size="13" font-weight="bold">Model Providers</text>
  <rect x="330" y="410" width="120" height="22" rx="4" fill="#854d0e"/><text x="390" y="425" text-anchor="middle" fill="#fef3c7" font-size="10">Gemini</text>
  <rect x="470" y="410" width="120" height="22" rx="4" fill="#854d0e"/><text x="530" y="425" text-anchor="middle" fill="#fef3c7" font-size="10">Claude</text>
  <rect x="610" y="410" width="120" height="22" rx="4" fill="#854d0e"/><text x="670" y="425" text-anchor="middle" fill="#fef3c7" font-size="10">OpenAI</text>

  <!-- Data Layer -->
  <rect x="300" y="460" width="500" height="40" rx="8" fill="#1a2744" stroke="#4ade80" stroke-width="1.5" filter="url(#shadow)"/>
  <text x="550" y="485" text-anchor="middle" fill="#4ade80" font-size="12" font-weight="bold">Data Layer — PostgreSQL · Redis · Blob Storage · Vector Store</text>

  <!-- Arrows -->
  <line x1="210" y1="135" x2="250" y2="135" stroke="#38bdf8" stroke-width="1.5" marker-end="url(#arrowBlue)"/>
  <line x1="210" y1="280" x2="250" y2="280" stroke="#818cf8" stroke-width="1.5" marker-end="url(#arrowPurple)"/>
  <line x1="560" y1="200" x2="600" y2="200" stroke="#22d3ee" stroke-width="1.5" marker-end="url(#arrowCyan)"/>
  <line x1="735" y1="345" x2="735" y2="380" stroke="#f472b6" stroke-width="1.5" marker-end="url(#arrowPink)"/>
  <line x1="550" y1="440" x2="550" y2="460" stroke="#facc15" stroke-width="1.5" marker-end="url(#arrowYellow)"/>

  <defs>
    <marker id="arrowBlue" markerWidth="8" markerHeight="6" refX="8" refY="3" orient="auto"><path d="M0,0 L8,3 L0,6Z" fill="#38bdf8"/></marker>
    <marker id="arrowPurple" markerWidth="8" markerHeight="6" refX="8" refY="3" orient="auto"><path d="M0,0 L8,3 L0,6Z" fill="#818cf8"/></marker>
    <marker id="arrowCyan" markerWidth="8" markerHeight="6" refX="8" refY="3" orient="auto"><path d="M0,0 L8,3 L0,6Z" fill="#22d3ee"/></marker>
    <marker id="arrowPink" markerWidth="8" markerHeight="6" refX="8" refY="3" orient="auto"><path d="M0,0 L8,3 L0,6Z" fill="#f472b6"/></marker>
    <marker id="arrowYellow" markerWidth="8" markerHeight="6" refX="8" refY="3" orient="auto"><path d="M0,0 L8,3 L0,6Z" fill="#facc15"/></marker>
  </defs>
</svg>