<svg xmlns="http://www.w3.org/2000/svg" viewBox="0 0 900 360" font-family="Segoe UI, Arial, sans-serif">
  <defs>
    <linearGradient id="bg3" x1="0" y1="0" x2="0" y2="1"><stop offset="0%" stop-color="#0f172a"/><stop offset="100%" stop-color="#1e293b"/></linearGradient>
    <filter id="sh3"><feDropShadow dx="1" dy="2" stdDeviation="2" flood-opacity="0.25"/></filter>
  </defs>
  <rect width="900" height="360" rx="12" fill="url(#bg3)"/>
  <text x="450" y="32" text-anchor="middle" fill="#4ade80" font-size="18" font-weight="bold">ZenseAI.Qi — Roadmap Timeline</text>

  <!-- Timeline bar -->
  <rect x="60" y="70" width="780" height="6" rx="3" fill="#334155"/>
  <!-- Month markers -->
  <circle cx="138" cy="73" r="8" fill="#38bdf8"/><text x="138" y="60" text-anchor="middle" fill="#e2e8f0" font-size="11" font-weight="bold">MAR</text>
  <circle cx="294" cy="73" r="8" fill="#818cf8"/><text x="294" y="60" text-anchor="middle" fill="#e2e8f0" font-size="11" font-weight="bold">APR</text>
  <circle cx="450" cy="73" r="8" fill="#22d3ee"/><text x="450" y="60" text-anchor="middle" fill="#e2e8f0" font-size="11" font-weight="bold">MAY</text>
  <circle cx="606" cy="73" r="8" fill="#f472b6"/><text x="606" y="60" text-anchor="middle" fill="#e2e8f0" font-size="11" font-weight="bold">JUN</text>
  <circle cx="762" cy="73" r="8" fill="#4ade80"/><text x="762" y="60" text-anchor="middle" fill="#e2e8f0" font-size="11" font-weight="bold">JUL</text>

  <!-- Phase labels -->
  <text x="138" y="100" text-anchor="middle" fill="#38bdf8" font-size="10" font-weight="bold">Foundation</text>
  <text x="294" y="100" text-anchor="middle" fill="#818cf8" font-size="10" font-weight="bold">Test Intelligence</text>
  <text x="450" y="100" text-anchor="middle" fill="#22d3ee" font-size="10" font-weight="bold">Observability</text>
  <text x="606" y="100" text-anchor="middle" fill="#f472b6" font-size="10" font-weight="bold">Security</text>
  <text x="762" y="100" text-anchor="middle" fill="#4ade80" font-size="10" font-weight="bold">GA Ready</text>

  <!-- March items -->
  <rect x="70" y="115" width="136" height="22" rx="4" fill="#0e7490" filter="url(#sh3)"/><text x="138" y="130" text-anchor="middle" fill="#fff" font-size="9">Platform Auth + Gateway</text>
  <rect x="70" y="142" width="136" height="22" rx="4" fill="#0e7490" filter="url(#sh3)"/><text x="138" y="157" text-anchor="middle" fill="#fff" font-size="9">DeepSpeci MVP</text>
  <rect x="70" y="169" width="136" height="22" rx="4" fill="#7e22ce" filter="url(#sh3)"/><text x="138" y="184" text-anchor="middle" fill="#fff" font-size="9">Req Evaluator Agent</text>

  <!-- April items -->
  <rect x="226" y="115" width="136" height="22" rx="4" fill="#0e7490" filter="url(#sh3)"/><text x="294" y="130" text-anchor="middle" fill="#fff" font-size="9">CaseGeni MVP</text>
  <rect x="226" y="142" width="136" height="22" rx="4" fill="#0e7490" filter="url(#sh3)"/><text x="294" y="157" text-anchor="middle" fill="#fff" font-size="9">DataGeni MVP</text>
  <rect x="226" y="169" width="136" height="22" rx="4" fill="#0e7490" filter="url(#sh3)"/><text x="294" y="184" text-anchor="middle" fill="#fff" font-size="9">Auto-PlayPilot MVP</text>
  <rect x="226" y="196" width="136" height="22" rx="4" fill="#7e22ce" filter="url(#sh3)"/><text x="294" y="211" text-anchor="middle" fill="#fff" font-size="9">3 Agents deployed</text>

  <!-- May items -->
  <rect x="382" y="115" width="136" height="22" rx="4" fill="#0e7490" filter="url(#sh3)"/><text x="450" y="130" text-anchor="middle" fill="#fff" font-size="9">Insights360 Dashboard</text>
  <rect x="382" y="142" width="136" height="22" rx="4" fill="#0e7490" filter="url(#sh3)"/><text x="450" y="157" text-anchor="middle" fill="#fff" font-size="9">Perf-Xi SLI/SLO</text>
  <rect x="382" y="169" width="136" height="22" rx="4" fill="#7e22ce" filter="url(#sh3)"/><text x="450" y="184" text-anchor="middle" fill="#fff" font-size="9">Report + Perf Agents</text>

  <!-- June items -->
  <rect x="538" y="115" width="136" height="22" rx="4" fill="#0e7490" filter="url(#sh3)"/><text x="606" y="130" text-anchor="middle" fill="#fff" font-size="9">Secure-Xi SAST/DAST</text>
  <rect x="538" y="142" width="136" height="22" rx="4" fill="#0e7490" filter="url(#sh3)"/><text x="606" y="157" text-anchor="middle" fill="#fff" font-size="9">AI Threat Model</text>
  <rect x="538" y="169" width="136" height="22" rx="4" fill="#7e22ce" filter="url(#sh3)"/><text x="606" y="184" text-anchor="middle" fill="#fff" font-size="9">Security Agent</text>
  <rect x="538" y="196" width="136" height="22" rx="4" fill="#0e7490" filter="url(#sh3)"/><text x="606" y="211" text-anchor="middle" fill="#fff" font-size="9">CI Gates + SLO Breach</text>

  <!-- July items -->
  <rect x="694" y="115" width="136" height="22" rx="4" fill="#065f46" filter="url(#sh3)"/><text x="762" y="130" text-anchor="middle" fill="#fff" font-size="9">E2E Integration Tests</text>
  <rect x="694" y="142" width="136" height="22" rx="4" fill="#065f46" filter="url(#sh3)"/><text x="762" y="157" text-anchor="middle" fill="#fff" font-size="9">Soak + Capacity Tests</text>
  <rect x="694" y="169" width="136" height="22" rx="4" fill="#065f46" filter="url(#sh3)"/><text x="762" y="184" text-anchor="middle" fill="#fff" font-size="9">Export + Overlays</text>
  <rect x="694" y="196" width="136" height="22" rx="4" fill="#166534" filter="url(#sh3)"/><text x="762" y="211" text-anchor="middle" fill="#4ade80" font-size="10" font-weight="bold">🚀 GA Release</text>

  <!-- Milestones -->
  <text x="450" y="252" text-anchor="middle" fill="#facc15" font-size="13" font-weight="bold">Milestones</text>
  <line x1="60" y1="260" x2="840" y2="260" stroke="#334155" stroke-width="1"/>
  <circle cx="138" cy="280" r="5" fill="#38bdf8"/><text x="138" y="300" text-anchor="middle" fill="#e2e8f0" font-size="9">M1: DeepSpeci</text><text x="138" y="312" text-anchor="middle" fill="#64748b" font-size="8">Mar W4</text>
  <circle cx="294" cy="280" r="5" fill="#818cf8"/><text x="294" y="300" text-anchor="middle" fill="#e2e8f0" font-size="9">M2: Test Suite</text><text x="294" y="312" text-anchor="middle" fill="#64748b" font-size="8">Apr W4</text>
  <circle cx="450" cy="280" r="5" fill="#22d3ee"/><text x="450" y="300" text-anchor="middle" fill="#e2e8f0" font-size="9">M3: Observability</text><text x="450" y="312" text-anchor="middle" fill="#64748b" font-size="8">May W4</text>
  <circle cx="606" cy="280" r="5" fill="#f472b6"/><text x="606" y="300" text-anchor="middle" fill="#e2e8f0" font-size="9">M4: Security</text><text x="606" y="312" text-anchor="middle" fill="#64748b" font-size="8">Jun W4</text>
  <circle cx="762" cy="280" r="5" fill="#4ade80"/><text x="762" y="300" text-anchor="middle" fill="#e2e8f0" font-size="9">M5: GA Release</text><text x="762" y="312" text-anchor="middle" fill="#64748b" font-size="8">Jul W4</text>

  <!-- Legend -->
  <rect x="250" y="330" width="14" height="14" rx="2" fill="#0e7490"/><text x="270" y="342" fill="#e2e8f0" font-size="10">Solution</text>
  <rect x="350" y="330" width="14" height="14" rx="2" fill="#7e22ce"/><text x="370" y="342" fill="#e2e8f0" font-size="10">Agent</text>
  <rect x="430" y="330" width="14" height="14" rx="2" fill="#065f46"/><text x="450" y="342" fill="#e2e8f0" font-size="10">GA Readiness</text>
</svg>